<?xml version="1.0" standalone="no"?>
<!DOCTYPE svg PUBLIC "-//W3C//DTD SVG 20010904//EN"
 "http://www.w3.org/TR/2001/REC-SVG-20010904/DTD/svg10.dtd">
<svg version="1.0" xmlns="http://www.w3.org/2000/svg"
 width="162.000000pt" height="162.000000pt" viewBox="0 0 162.000000 162.000000"
 preserveAspectRatio="xMidYMid meet">
<metadata>
Created by potrace 1.11, written by Peter Selinger 2001-2013
</metadata>
<g transform="translate(0.000000,162.000000) scale(0.100000,-0.100000)"
fill="#000000" stroke="none">
<path d="M832 1508 c-19 -19 -14 -36 13 -54 29 -19 32 -40 8 -48 -11 -3 -7 -4
7 -3 37 3 40 48 5 67 -18 9 -25 20 -22 32 6 21 5 22 -11 6z"/>
<path d="M860 1516 c0 -2 7 -9 15 -16 9 -7 15 -8 15 -2 0 5 -7 12 -15 16 -8 3
-15 4 -15 2z"/>
<path d="M658 1488 c5 -7 13 -32 17 -55 4 -27 12 -43 21 -43 17 0 17 -3 3 60
-9 40 -15 50 -31 50 -15 0 -18 -3 -10 -12z"/>
<path d="M1023 1483 c3 -3 -3 -27 -13 -53 -17 -44 -17 -60 1 -60 3 0 9 8 12
18 3 9 12 33 21 53 15 35 15 37 -5 42 -12 3 -19 3 -16 0z"/>
<path d="M1085 1440 c-3 -11 -14 -20 -23 -20 -13 0 -14 -2 -3 -9 10 -6 11 -13
2 -29 -15 -28 -14 -34 5 -30 16 3 56 92 46 102 -11 11 -21 6 -27 -14z"/>
<path d="M505 1426 c11 -8 16 -19 12 -30 -9 -23 -24 -20 -34 9 -5 16 -12 22
-21 16 -10 -6 -7 -17 12 -51 14 -24 23 -47 20 -52 -3 -4 2 -5 11 -2 12 5 15
14 11 30 -7 27 -3 29 25 13 12 -6 28 -8 37 -4 14 5 12 8 -8 18 -16 8 -26 23
-28 40 -3 22 -8 27 -30 27 -24 0 -25 -1 -7 -14z"/>
<path d="M1255 1337 c-11 -7 -20 -18 -20 -24 0 -7 -4 -12 -10 -10 -5 1 -9 5
-7 10 3 11 -10 8 -38 -8 l-25 -15 26 6 c29 6 44 -8 44 -40 0 -43 22 -23 37 34
9 33 15 60 14 60 0 -1 -10 -6 -21 -13z"/>
<path d="M322 1317 c-7 -8 -7 -18 -2 -27 6 -8 10 -11 10 -6 0 6 15 -5 33 -22
26 -26 36 -30 44 -20 14 19 -70 94 -85 75z"/>
<path d="M334 1258 c6 -20 -2 -22 -38 -9 -37 15 -53 -10 -24 -35 19 -16 20
-16 9 -1 -16 21 -14 21 38 2 46 -16 51 -8 25 35 -8 14 -13 17 -10 8z"/>
<path d="M520 1175 c0 -26 6 -48 15 -55 9 -8 15 -30 15 -60 0 -30 -6 -52 -15
-60 -13 -11 -15 -57 -15 -305 0 -361 -8 -342 168 -376 35 -6 79 -22 98 -35 19
-13 34 -19 34 -14 0 17 53 38 139 54 93 17 127 35 141 72 6 14 10 151 10 305
0 236 -2 283 -15 295 -17 17 -21 109 -5 119 6 3 10 28 10 55 0 48 0 48 -34 48
-29 0 -35 -4 -40 -29 -7 -37 -21 -37 -37 0 -11 24 -19 29 -50 29 -33 1 -37 -2
-43 -29 -7 -37 -25 -37 -32 0 -5 25 -10 28 -44 28 -35 0 -40 -3 -45 -28 -8
-37 -20 -37 -36 0 -11 24 -19 29 -51 29 -27 1 -38 -3 -38 -14 0 -9 -6 -21 -13
-28 -10 -11 -15 -11 -25 0 -7 7 -12 19 -12 27 0 10 -12 14 -40 14 l-40 0 0
-42z m53 18 c-7 -2 -19 -2 -25 0 -7 3 -2 5 12 5 14 0 19 -2 13 -5z m140 0 c-7
-2 -21 -2 -30 0 -10 3 -4 5 12 5 17 0 24 -2 18 -5z m120 0 c-7 -2 -21 -2 -30
0 -10 3 -4 5 12 5 17 0 24 -2 18 -5z m130 0 c-7 -2 -21 -2 -30 0 -10 3 -4 5
12 5 17 0 24 -2 18 -5z m120 0 c-7 -2 -19 -2 -25 0 -7 3 -2 5 12 5 14 0 19 -2
13 -5z m-523 -53 c5 0 11 8 14 18 3 10 4 6 3 -8 -1 -15 -8 -25 -17 -25 -9 0
-16 10 -17 25 -1 14 0 18 3 8 3 -10 9 -18 14 -18z m131 0 c5 0 9 7 9 15 0 8 5
15 10 15 15 0 12 -26 -5 -40 -19 -15 -35 -4 -34 23 1 17 2 18 6 5 2 -10 9 -18
14 -18z m119 15 c0 -21 18 -19 23 3 4 13 5 12 6 -5 1 -27 -15 -38 -34 -23 -17
14 -20 40 -5 40 6 0 10 -7 10 -15z m135 -15 c7 0 16 8 18 18 4 14 5 14 6 1 1
-20 -24 -43 -39 -34 -5 3 -9 16 -9 28 1 17 2 18 6 5 2 -10 11 -18 18 -18z
m115 15 c0 -21 18 -19 23 3 4 13 5 12 6 -5 1 -27 -15 -38 -34 -23 -17 14 -20
40 -5 40 6 0 10 -7 10 -15z m-417 -12 c-7 -2 -21 -2 -30 0 -10 3 -4 5 12 5 17
0 24 -2 18 -5z m120 0 c-7 -2 -19 -2 -25 0 -7 3 -2 5 12 5 14 0 19 -2 13 -5z
m130 0 c-7 -2 -19 -2 -25 0 -7 3 -2 5 12 5 14 0 19 -2 13 -5z m124 1 c-3 -3
-12 -4 -19 -1 -8 3 -5 6 6 6 11 1 17 -2 13 -5z m-140 -20 c-3 -3 -12 -4 -19
-1 -8 3 -5 6 6 6 11 1 17 -2 13 -5z m-234 -21 c-7 -2 -19 -2 -25 0 -7 3 -2 5
12 5 14 0 19 -2 13 -5z m124 1 c-3 -3 -12 -4 -19 -1 -8 3 -5 6 6 6 11 1 17 -2
13 -5z m126 -1 c-7 -2 -19 -2 -25 0 -7 3 -2 5 12 5 14 0 19 -2 13 -5z m124 1
c-3 -3 -12 -4 -19 -1 -8 3 -5 6 6 6 11 1 17 -2 13 -5z m-337 -24 c0 -5 -22
-10 -50 -10 -27 0 -50 5 -50 10 0 6 23 10 50 10 28 0 50 -4 50 -10z m120 0 c0
-5 -22 -10 -50 -10 -27 0 -50 5 -50 10 0 6 23 10 50 10 28 0 50 -4 50 -10z
m130 0 c0 -5 -22 -10 -50 -10 -27 0 -50 5 -50 10 0 6 23 10 50 10 28 0 50 -4
50 -10z m120 0 c0 -5 -20 -10 -45 -10 -25 0 -45 5 -45 10 0 6 20 10 45 10 25
0 45 -4 45 -10z m-430 -30 c0 -5 -9 -10 -20 -10 -11 0 -20 5 -20 10 0 6 9 10
20 10 11 0 20 -4 20 -10z m130 0 c0 -5 -25 -10 -55 -10 -30 0 -55 5 -55 10 0
6 25 10 55 10 30 0 55 -4 55 -10z m120 0 c0 -5 -22 -10 -50 -10 -27 0 -50 5
-50 10 0 6 23 10 50 10 28 0 50 -4 50 -10z m120 0 c0 -5 -22 -10 -50 -10 -27
0 -50 5 -50 10 0 6 23 10 50 10 28 0 50 -4 50 -10z m60 0 c0 -5 -9 -10 -20
-10 -11 0 -20 5 -20 10 0 6 9 10 20 10 11 0 20 -4 20 -10z m-370 -30 c0 -5
-22 -10 -50 -10 -27 0 -50 5 -50 10 0 6 23 10 50 10 28 0 50 -4 50 -10z m120
0 c0 -5 -22 -10 -50 -10 -27 0 -50 5 -50 10 0 6 23 10 50 10 28 0 50 -4 50
-10z m130 0 c0 -5 -25 -10 -55 -10 -30 0 -55 5 -55 10 0 6 25 10 55 10 30 0
55 -4 55 -10z m120 0 c0 -5 -22 -10 -50 -10 -27 0 -50 5 -50 10 0 6 23 10 50
10 28 0 50 -4 50 -10z m50 -215 c0 -196 2 -192 -71 -155 l-40 21 -44 -22 -45
-23 -45 23 -46 23 -35 -21 c-44 -26 -58 -26 -100 0 l-34 21 -40 -21 c-72 -37
-70 -42 -70 154 l0 175 285 0 285 0 0 -175z m-428 -280 c-2 -14 -9 -28 -16
-32 -18 -12 -45 -13 -51 -3 -3 6 -16 10 -28 10 -21 1 -21 1 -3 11 14 9 20 8
26 -1 10 -16 31 -4 24 15 -4 8 3 15 18 18 13 2 26 5 29 6 3 0 4 -10 1 -24z
m48 21 c0 -2 -8 -10 -17 -17 -16 -13 -17 -12 -4 4 13 16 21 21 21 13z m40 -2
c0 -8 -19 -13 -24 -6 -3 5 1 9 9 9 8 0 15 -2 15 -3z m62 -1 c-6 -3 -10 -8 -8
-12 3 -4 -1 -8 -8 -8 -22 0 -14 23 8 24 12 1 15 -1 8 -4z m114 -28 c4 -9 20
-15 38 -16 l31 -1 -35 -8 c-165 -38 -260 -48 -303 -31 -17 6 -17 8 -3 20 9 7
22 11 31 8 8 -4 17 -2 20 3 3 5 -5 10 -17 12 -22 3 -22 4 -3 9 12 3 32 2 45
-4 36 -14 60 -18 60 -9 0 5 30 7 68 6 64 -2 65 -1 37 12 l-30 13 28 1 c16 0
30 -6 33 -15z"/>
<path d="M550 887 c0 -12 5 -39 10 -59 27 -96 106 -133 269 -126 156 6 223 52
238 164 6 48 6 49 -13 32 -40 -35 -105 -50 -224 -52 -141 -1 -198 8 -244 39
l-36 24 0 -22z"/>
<path d="M641 504 c0 -11 3 -14 6 -6 3 7 2 16 -1 19 -3 4 -6 -2 -5 -13z"/>
<path d="M1378 1194 c-16 -8 -28 -17 -28 -20 0 -2 10 1 22 7 21 11 21 10 -5
-24 -15 -19 -27 -38 -27 -41 0 -3 15 -6 33 -6 22 0 28 3 18 9 -12 7 -10 14 7
36 11 14 18 33 15 41 -3 8 -6 14 -7 14 0 -1 -13 -8 -28 -16z"/>
<path d="M316 1175 c4 -8 11 -15 16 -15 6 0 5 6 -2 15 -7 8 -14 15 -16 15 -2
0 -1 -7 2 -15z"/>
<path d="M1424 1122 c3 -5 -12 -19 -33 -29 -28 -14 -37 -24 -31 -33 6 -10 18
-7 55 14 46 28 54 48 20 54 -9 2 -15 0 -11 -6z"/>
<path d="M168 1098 c-6 -18 93 -62 103 -47 5 8 -9 20 -43 36 -59 27 -55 26
-60 11z"/>
<path d="M1487 962 c-9 -2 -14 -8 -11 -14 3 -5 -11 -28 -32 -50 -36 -37 -37
-40 -14 -34 14 3 36 6 50 7 21 0 22 2 7 8 -17 6 -17 8 3 34 25 31 23 54 -3 49z"/>
<path d="M116 934 c-6 -15 -4 -15 11 -3 10 7 20 15 22 16 2 2 -3 3 -11 3 -9 0
-19 -7 -22 -16z"/>
<path d="M160 925 c-13 -14 -30 -23 -38 -20 -12 4 -13 3 -2 -10 18 -21 33 -19
60 10 13 14 27 25 32 25 15 0 8 -39 -9 -49 -17 -10 -17 -10 -1 -11 22 0 35 45
18 65 -18 21 -33 19 -60 -10z"/>
<path d="M1400 941 c0 -4 11 -6 25 -3 14 2 25 6 25 8 0 2 -11 4 -25 4 -14 0
-25 -4 -25 -9z"/>
<path d="M131 712 c-20 -38 31 -71 59 -37 6 8 9 23 5 35 -8 25 -51 27 -64 2z"/>
<path d="M1431 716 c-9 -11 -10 -20 -1 -35 21 -40 79 -15 65 29 -7 24 -46 27
-64 6z"/>
<path d="M1370 521 c0 -5 7 -12 16 -15 14 -5 15 -4 4 9 -14 17 -20 19 -20 6z"/>
<path d="M180 507 c-31 -15 -39 -66 -15 -91 30 -30 84 -15 98 27 8 22 1 22
-30 -3 -31 -24 -61 -26 -70 -3 -4 10 2 23 16 35 27 21 67 24 74 6 4 -10 6 -10
6 -1 1 11 -36 43 -49 43 -3 0 -16 -6 -30 -13z"/>
<path d="M260 510 c0 -5 5 -10 11 -10 5 0 7 5 4 10 -3 6 -8 10 -11 10 -2 0 -4
-4 -4 -10z"/>
<path d="M1414 491 c4 -7 -8 -13 -33 -17 -22 -3 -42 -13 -45 -20 -3 -8 -1 -14
5 -14 5 0 27 -11 49 -25 21 -13 41 -21 44 -17 3 5 -11 14 -30 21 -18 7 -34 16
-34 20 0 5 24 12 53 17 l52 10 -34 18 c-18 10 -30 13 -27 7z"/>
<path d="M270 480 c0 -5 5 -10 10 -10 6 0 10 5 10 10 0 6 -4 10 -10 10 -5 0
-10 -4 -10 -10z"/>
<path d="M1256 342 c-3 -5 1 -9 9 -9 8 0 15 4 15 9 0 4 -4 8 -9 8 -6 0 -12 -4
-15 -8z"/>
<path d="M319 333 c-4 -37 -3 -103 2 -103 18 0 30 31 24 63 -6 29 -4 36 12 40
12 3 9 5 -9 6 -16 0 -28 -2 -29 -6z"/>
<path d="M1221 316 c-11 -13 -7 -22 25 -56 l38 -40 28 27 c15 15 28 31 28 36
0 5 -9 -1 -19 -14 l-19 -24 -27 25 c-15 14 -30 33 -34 43 -6 17 -8 17 -20 3z"/>
<path d="M370 304 c0 -8 5 -12 10 -9 6 4 8 11 5 16 -9 14 -15 11 -15 -7z"/>
<path d="M1270 295 c0 -8 7 -15 16 -15 14 0 14 3 4 15 -7 8 -14 15 -16 15 -2
0 -4 -7 -4 -15z"/>
<path d="M272 288 c-7 -9 -4 -19 11 -33 l20 -20 -10 20 c-6 11 -8 26 -6 33 3
6 3 12 0 12 -2 0 -9 -6 -15 -12z"/>
<path d="M465 230 c-3 -6 1 -7 9 -4 18 7 21 14 7 14 -6 0 -13 -4 -16 -10z"/>
<path d="M482 184 c-26 -52 -27 -57 -13 -62 6 -2 20 17 33 42 21 43 23 45 40
29 10 -9 18 -11 18 -5 0 6 -13 18 -28 26 -28 15 -29 15 -50 -30z"/>
<path d="M1053 204 c-9 -4 15 -63 42 -102 1 -1 9 0 18 4 13 5 12 11 -9 41 -13
20 -24 42 -24 49 0 14 -6 16 -27 8z"/>
<path d="M654 147 c0 -12 -2 -38 -5 -57 -3 -26 0 -35 12 -38 11 -2 15 4 15 20
-1 14 5 23 14 23 8 0 16 9 17 20 2 11 0 14 -3 8 -8 -18 -24 -16 -24 2 0 21 27
30 45 15 10 -8 15 -9 15 -1 0 6 -12 13 -27 17 -16 3 -35 8 -43 10 -10 2 -15
-4 -16 -19z"/>
<path d="M867 153 c-12 -3 -15 -11 -12 -26 3 -12 7 -37 8 -54 1 -23 7 -33 18
-33 12 0 15 7 11 28 l-5 27 25 -22 c35 -33 69 -28 36 6 -7 6 -13 26 -13 44 0
27 -4 32 -25 34 -14 0 -33 -1 -43 -4z m46 -15 c6 -19 -3 -38 -19 -38 -8 0 -14
10 -14 25 0 26 25 35 33 13z"/>
<path d="M1150 140 c-9 -16 -8 -18 5 -14 8 4 15 12 15 20 0 20 -7 17 -20 -6z"/>
<path d="M710 55 c-8 -9 -8 -15 -2 -15 12 0 26 19 19 26 -2 2 -10 -2 -17 -11z"/>
</g>
</svg>
